<svg width="720" height="240" xmlns="http://www.w3.org/2000/svg" xmlns:xlink="http://www.w3.org/1999/xlink" version="1.1" baseProfile="full" viewBox="0 0 720 240">
<rect width="720" height="240" x="0" y="0" fill="#ffffff"></rect>
<path d="M46.5 40L46.5 164" fill="none" pointer-events="visible" stroke="#c3c7cf" class="zr0-cls-12"></path>
<path d="M138.5 40L138.5 164" fill="none" pointer-events="visible" stroke="#c3c7cf" class="zr0-cls-12"></path>
<path d="M230.5 40L230.5 164" fill="none" pointer-events="visible" stroke="#c3c7cf" class="zr0-cls-12"></path>
<path d="M323.5 40L323.5 164" fill="none" pointer-events="visible" stroke="#c3c7cf" class="zr0-cls-12"></path>
<path d="M415.5 40L415.5 164" fill="none" pointer-events="visible" stroke="#c3c7cf" class="zr0-cls-12"></path>
<path d="M508.5 40L508.5 164" fill="none" pointer-events="visible" stroke="#c3c7cf" class="zr0-cls-12"></path>
<path d="M600.5 40L600.5 164" fill="none" pointer-events="visible" stroke="#c3c7cf" class="zr0-cls-12"></path>
<path d="M692.5 40L692.5 164" fill="none" pointer-events="visible" stroke="#c3c7cf" class="zr0-cls-12"></path>
<path d="M323.5 40L323.5 164" fill="none" pointer-events="visible" stroke="#c3c7cf" stroke-linecap="round" class="zr0-cls-12"></path>
<text dominant-baseline="central" text-anchor="start" style="font-size:12px;font-family:sans-serif;" transform="translate(707.6 164)" fill="#3f434a">Estimate</text>
<text dominant-baseline="central" text-anchor="end" style="font-size:12px;font-family:sans-serif;" transform="translate(37.8 60.6667)" fill="#6b7079">A</text>
<text dominant-baseline="central" text-anchor="end" style="font-size:12px;font-family:sans-serif;" transform="translate(37.8 102)" fill="#6b7079">B</text>
<text dominant-baseline="central" text-anchor="end" style="font-size:12px;font-family:sans-serif;" transform="translate(37.8 143.3333)" fill="#6b7079">Gap</text>
<text dominant-baseline="central" text-anchor="middle" style="font-size:12px;font-family:sans-serif;" y="6" transform="translate(45.8 172)" fill="#6b7079">-0.3</text>
<text dominant-baseline="central" text-anchor="middle" style="font-size:12px;font-family:sans-serif;" y="6" transform="translate(138.2 172)" fill="#6b7079">-0.2</text>
<text dominant-baseline="central" text-anchor="middle" style="font-size:12px;font-family:sans-serif;" y="6" transform="translate(230.6 172)" fill="#6b7079">-0.1</text>
<text dominant-baseline="central" text-anchor="middle" style="font-size:12px;font-family:sans-serif;" y="6" transform="translate(323 172)" fill="#6b7079">0</text>
<text dominant-baseline="central" text-anchor="middle" style="font-size:12px;font-family:sans-serif;" y="6" transform="translate(415.4 172)" fill="#6b7079">0.1</text>
<text dominant-baseline="central" text-anchor="middle" style="font-size:12px;font-family:sans-serif;" y="6" transform="translate(507.8 172)" fill="#6b7079">0.2</text>
<text dominant-baseline="central" text-anchor="middle" style="font-size:12px;font-family:sans-serif;" y="6" transform="translate(600.2 172)" fill="#6b7079">0.3</text>
<text dominant-baseline="central" text-anchor="middle" style="font-size:12px;font-family:sans-serif;" y="6" transform="translate(692.6 172)" fill="#6b7079">0.4</text>
<path d="M323 59.7l-92.4 0l0 2l92.4 0Z" fill="#1c2d6b" fill-opacity="0" ecmeta_series_index="1" ecmeta_data_index="0" ecmeta_ssr_type="chart" ecmeta_silent="true" class="zr0-cls-12"></path>
<path d="M323 101l-277.2 0l0 2l277.2 0Z" fill="#1c2d6b" fill-opacity="0" ecmeta_series_index="1" ecmeta_data_index="1" ecmeta_ssr_type="chart" ecmeta_silent="true" class="zr0-cls-12"></path>
<path d="M230.6 59.7l462 0l0 2l-462 0Z" fill="#1c2d6b" ecmeta_series_index="2" ecmeta_data_index="0" ecmeta_ssr_type="chart" ecmeta_silent="true" class="zr0-cls-12"></path>
<path d="M45.8 101l369.6 0l0 2l-369.6 0Z" fill="#1c2d6b" ecmeta_series_index="2" ecmeta_data_index="1" ecmeta_ssr_type="chart" ecmeta_silent="true" class="zr0-cls-12"></path>
<path d="M1 0A1 1 0 1 1 1 -0.1A1 1 0 0 1 1 0" transform="matrix(5,0,0,5,507.8,60.6667)" fill="#1c2d6b" fill-opacity="0.8" ecmeta_series_index="0" ecmeta_data_index="0" ecmeta_ssr_type="chart" class="zr0-cls-13"></path>
<path d="M1 0A1 1 0 1 1 1 -0.1A1 1 0 0 1 1 0" transform="matrix(5,0,0,5,230.6,102)" fill="#1c2d6b" fill-opacity="0.8" ecmeta_series_index="0" ecmeta_data_index="1" ecmeta_ssr_type="chart" class="zr0-cls-13"></path>
<path d="M-1 -1l2 0l0 2l-2 0Z" transform="matrix(1,0,0,5,230.6,60.6667)" fill="#1c2d6b" fill-opacity="0.8" ecmeta_series_index="3" ecmeta_data_index="0" ecmeta_ssr_type="chart" ecmeta_silent="true" class="zr0-cls-12"></path>
<path d="M-1 -1l2 0l0 2l-2 0Z" transform="matrix(1,0,0,5,45.8,102)" fill="#1c2d6b" fill-opacity="0.8" ecmeta_series_index="3" ecmeta_data_index="1" ecmeta_ssr_type="chart" ecmeta_silent="true" class="zr0-cls-12"></path>
<path d="M-1 -1l2 0l0 2l-2 0Z" transform="matrix(1,0,0,5,692.6,60.6667)" fill="#1c2d6b" fill-opacity="0.8" ecmeta_series_index="4" ecmeta_data_index="0" ecmeta_ssr_type="chart" ecmeta_silent="true" class="zr0-cls-12"></path>
<path d="M-1 -1l2 0l0 2l-2 0Z" transform="matrix(1,0,0,5,415.4,102)" fill="#1c2d6b" fill-opacity="0.8" ecmeta_series_index="4" ecmeta_data_index="1" ecmeta_ssr_type="chart" ecmeta_silent="true" class="zr0-cls-12"></path>
<path d="M-5 -5.5l81.3 0l0 25l-81.3 0Z" transform="translate(324.35 220.5)" fill="rgb(0,0,0)" fill-opacity="0" stroke="#c3c7cf" stroke-width="0" class="zr0-cls-12"></path>
<path d="M19.5 7A7 7 0 1 1 19.5 6.3A7 7 0 0 1 19.5 7" transform="translate(318.85 220.5)" fill="#1c2d6b" fill-opacity="0.8" ecmeta_series_index="0" ecmeta_data_index="0" ecmeta_ssr_type="legend" ecmeta_silent="true" class="zr0-cls-12"></path>
<text dominant-baseline="central" text-anchor="start" style="font-size:12px;font-family:sans-serif;" x="30" y="7" transform="translate(318.85 220.5)" fill="#3f434a">Estimate</text>
<path d="M5.5 0l71.3 0l0 14l-71.3 0Z" transform="translate(318.85 220.5)" fill="none" pointer-events="visible" ecmeta_series_index="0" ecmeta_data_index="0" ecmeta_ssr_type="legend" class="zr0-cls-14"></path>
<path d="M323.5 40L323.5 164" fill="none" pointer-events="visible" stroke="#6b7079" stroke-dasharray="4,2" ecmeta_series_index="0" ecmeta_data_index="0" ecmeta_ssr_type="chart" class="zr0-cls-15"></path>
<style ><![CDATA[
.zr0-cls-12:hover {
pointer-events:none;
}
.zr0-cls-13:hover {
cursor:pointer;
fill:rgba(30,49,117,1);
}
.zr0-cls-14:hover {
cursor:pointer;
fill:rgba(0,0,0,0);
}
.zr0-cls-15:hover {
cursor:pointer;
stroke-width:3;
}

]]>

</style>
</svg>